<?xml version="1.0" encoding="UTF-8"?>
<svg version="1.1" xmlns="http://www.w3.org/2000/svg" width="351" height="179">
<path d="M0 0 C10.76486667 10.00289569 16.84920377 23.2163622 18.28125 37.78515625 C18.39001738 43.11561424 18.2907807 48.44167286 17.95874023 53.76293945 C17.84404003 56.54561666 17.78178788 59.04439071 18.28125 61.78515625 C20.96186462 64.38502495 20.96186462 64.38502495 24.28125 65.78515625 C26.14453125 67.6015625 26.14453125 67.6015625 27.59375 69.34765625 C28.08488281 69.92644531 28.57601563 70.50523438 29.08203125 71.1015625 C31.72510177 74.81219245 31.64187985 78.38547211 31.28125 82.78515625 C28.92888547 90.12566724 24.12464216 94.03218359 18.05078125 98.3828125 C17.32246094 98.90746094 16.59414063 99.43210937 15.84375 99.97265625 C14.82474609 100.67455078 14.82474609 100.67455078 13.78515625 101.390625 C13.04072266 102.08091797 13.04072266 102.08091797 12.28125 102.78515625 C12.0038999 105.97005632 12.0038999 105.97005632 14.28125 108.78515625 C15.1564539 113.97189092 14.85622858 118.531133 12.15625 123.09765625 C5.78879191 131.91277232 -2.28761859 134.98502799 -12.72998047 136.97802734 C-21.01621171 138.57744166 -28.21168078 141.10146194 -35.84375 144.72265625 C-58.56814435 155.45454033 -81.28527084 159.1533613 -106.34375 159.16015625 C-107.09789185 159.16205963 -107.85203369 159.16396301 -108.62902832 159.16592407 C-117.71713838 159.16332294 -126.46668973 158.60825933 -135.43798828 157.12402344 C-139.81719159 156.67169912 -143.62873217 157.38788171 -147.91015625 158.2578125 C-155.542405 159.69084947 -162.99147071 158.7727822 -170.59375 157.59765625 C-171.31973389 157.49686768 -172.04571777 157.3960791 -172.79370117 157.29223633 C-177.86035124 156.41948661 -180.68054174 154.95965441 -183.71875 150.78515625 C-183.6796875 148.42578125 -183.6796875 148.42578125 -183.09375 146.03515625 C-182.80465247 143.36213154 -182.80465247 143.36213154 -183.71875 140.78515625 C-187.10734781 138.07521408 -190.6798893 136.16048627 -194.49609375 134.125 C-219.14708025 120.93618792 -238.87082749 96.10887459 -253.46875 72.91015625 C-253.89937744 72.22598633 -254.33000488 71.54181641 -254.77368164 70.83691406 C-257.71875 66.0453104 -257.71875 66.0453104 -257.71875 63.78515625 C-258.50894531 64.00171875 -259.29914063 64.21828125 -260.11328125 64.44140625 C-273.39908229 67.72110113 -289.2919618 69.76159875 -301.71875 62.78515625 C-309.12009196 58.24793513 -312.44353216 51.01106532 -315.09375 42.97265625 C-315.71577642 39.80032152 -315.64848365 37.85327729 -314.71875 34.78515625 C-312.53125 34.09765625 -312.53125 34.09765625 -309.71875 33.78515625 C-308.605 34.55859375 -308.605 34.55859375 -307.46875 35.34765625 C-303.87335368 37.22706796 -302.18433929 36.66917467 -298.36328125 35.66796875 C-295.30665663 34.64758889 -292.3779364 33.4057733 -289.40625 32.16015625 C-280.81311706 28.74300397 -272.68306818 29.15528022 -263.71875 30.78515625 C-263.22375 29.89828125 -262.72875 29.01140625 -262.21875 28.09765625 C-258.5652256 22.64941811 -252.79434422 20.18721686 -246.90625 17.72265625 C-243.503581 16.25518216 -241.4336933 15.21504286 -239.71875 11.78515625 C-239.22375 10.20734375 -239.22375 10.20734375 -238.71875 8.59765625 C-238.38875 7.66953125 -238.05875 6.74140625 -237.71875 5.78515625 C-236.72875 5.45515625 -235.73875 5.12515625 -234.71875 4.78515625 C-227.62998162 11.0862837 -224.2869274 19.10338223 -223.34375 28.53515625 C-223.59079522 36.48692416 -226.9239447 43.66294042 -232.25390625 49.4453125 C-233.71875 50.78515625 -233.71875 50.78515625 -236.71875 52.78515625 C-234.99130984 53.43559344 -233.2617131 54.08030469 -231.53125 54.72265625 C-230.56832031 55.08230469 -229.60539062 55.44195312 -228.61328125 55.8125 C-214.95823381 60.40103821 -200.28336805 57.87874736 -187.484375 51.8671875 C-173.51048148 44.91975073 -161.55866702 35.47643561 -149.32714844 25.89892578 C-109.84041531 -4.916905 -45.92302704 -37.41143151 0 0 Z " fill="#E8E9DB" transform="translate(317.71875,17.21484375)"/>
<path d="M0 0 C10.76486667 10.00289569 16.84920377 23.2163622 18.28125 37.78515625 C18.39001738 43.11561424 18.2907807 48.44167286 17.95874023 53.76293945 C17.84404003 56.54561666 17.78178788 59.04439071 18.28125 61.78515625 C20.96186462 64.38502495 20.96186462 64.38502495 24.28125 65.78515625 C26.14453125 67.6015625 26.14453125 67.6015625 27.59375 69.34765625 C28.08488281 69.92644531 28.57601563 70.50523438 29.08203125 71.1015625 C31.72510177 74.81219245 31.64187985 78.38547211 31.28125 82.78515625 C28.92888547 90.12566724 24.12464216 94.03218359 18.05078125 98.3828125 C17.32246094 98.90746094 16.59414063 99.43210937 15.84375 99.97265625 C14.82474609 100.67455078 14.82474609 100.67455078 13.78515625 101.390625 C13.04072266 102.08091797 13.04072266 102.08091797 12.28125 102.78515625 C12.0038999 105.97005632 12.0038999 105.97005632 14.28125 108.78515625 C15.1564539 113.97189092 14.85622858 118.531133 12.15625 123.09765625 C5.78879191 131.91277232 -2.28761859 134.98502799 -12.72998047 136.97802734 C-21.01621171 138.57744166 -28.21168078 141.10146194 -35.84375 144.72265625 C-58.56814435 155.45454033 -81.28527084 159.1533613 -106.34375 159.16015625 C-107.09789185 159.16205963 -107.85203369 159.16396301 -108.62902832 159.16592407 C-117.71713838 159.16332294 -126.46668973 158.60825933 -135.43798828 157.12402344 C-139.81719159 156.67169912 -143.62873217 157.38788171 -147.91015625 158.2578125 C-155.542405 159.69084947 -162.99147071 158.7727822 -170.59375 157.59765625 C-171.31973389 157.49686768 -172.04571777 157.3960791 -172.79370117 157.29223633 C-177.86035124 156.41948661 -180.68054174 154.95965441 -183.71875 150.78515625 C-183.6796875 148.42578125 -183.6796875 148.42578125 -183.09375 146.03515625 C-182.80465247 143.36213154 -182.80465247 143.36213154 -183.71875 140.78515625 C-187.10734781 138.07521408 -190.6798893 136.16048627 -194.49609375 134.125 C-219.14708025 120.93618792 -238.87082749 96.10887459 -253.46875 72.91015625 C-253.89937744 72.22598633 -254.33000488 71.54181641 -254.77368164 70.83691406 C-257.71875 66.0453104 -257.71875 66.0453104 -257.71875 63.78515625 C-258.50894531 64.00171875 -259.29914063 64.21828125 -260.11328125 64.44140625 C-273.39908229 67.72110113 -289.2919618 69.76159875 -301.71875 62.78515625 C-309.12009196 58.24793513 -312.44353216 51.01106532 -315.09375 42.97265625 C-315.71577642 39.80032152 -315.64848365 37.85327729 -314.71875 34.78515625 C-312.53125 34.09765625 -312.53125 34.09765625 -309.71875 33.78515625 C-308.605 34.55859375 -308.605 34.55859375 -307.46875 35.34765625 C-303.87335368 37.22706796 -302.18433929 36.66917467 -298.36328125 35.66796875 C-295.30665663 34.64758889 -292.3779364 33.4057733 -289.40625 32.16015625 C-280.81311706 28.74300397 -272.68306818 29.15528022 -263.71875 30.78515625 C-263.22375 29.89828125 -262.72875 29.01140625 -262.21875 28.09765625 C-258.5652256 22.64941811 -252.79434422 20.18721686 -246.90625 17.72265625 C-243.503581 16.25518216 -241.4336933 15.21504286 -239.71875 11.78515625 C-239.22375 10.20734375 -239.22375 10.20734375 -238.71875 8.59765625 C-238.38875 7.66953125 -238.05875 6.74140625 -237.71875 5.78515625 C-236.72875 5.45515625 -235.73875 5.12515625 -234.71875 4.78515625 C-227.62998162 11.0862837 -224.2869274 19.10338223 -223.34375 28.53515625 C-223.59079522 36.48692416 -226.9239447 43.66294042 -232.25390625 49.4453125 C-233.71875 50.78515625 -233.71875 50.78515625 -236.71875 52.78515625 C-234.99130984 53.43559344 -233.2617131 54.08030469 -231.53125 54.72265625 C-230.56832031 55.08230469 -229.60539062 55.44195312 -228.61328125 55.8125 C-214.95823381 60.40103821 -200.28336805 57.87874736 -187.484375 51.8671875 C-173.51048148 44.91975073 -161.55866702 35.47643561 -149.32714844 25.89892578 C-109.84041531 -4.916905 -45.92302704 -37.41143151 0 0 Z M-151.8515625 36.28125 C-173.27642046 53.23474705 -195.62599445 66.10654243 -223.71875 63.78515625 C-229.78469196 62.9095168 -234.89943236 61.0413905 -240.28125 58.16015625 C-240.90837891 57.8353125 -241.53550781 57.51046875 -242.18164062 57.17578125 C-243.69887559 56.3882089 -245.20956696 55.58805021 -246.71875 54.78515625 C-246.484375 52.95703125 -246.484375 52.95703125 -245.71875 50.78515625 C-243.828125 49.36328125 -243.828125 49.36328125 -241.46875 48.03515625 C-235.76842242 44.46791304 -232.82794653 40.11274585 -230.71875 33.78515625 C-230.5739537 31.83040616 -230.49807498 29.87004245 -230.46875 27.91015625 C-230.44296875 26.88148437 -230.4171875 25.8528125 -230.390625 24.79296875 C-230.75963933 21.41033735 -231.78324492 19.54579771 -233.71875 16.78515625 C-234.70875 17.44515625 -235.69875 18.10515625 -236.71875 18.78515625 C-236.71875 19.44515625 -236.71875 20.10515625 -236.71875 20.78515625 C-239.17775666 21.79151129 -241.62067643 22.75330599 -244.1484375 23.57421875 C-251.54426459 26.10250469 -256.23727106 30.08340668 -259.90625 37.03515625 C-260.174375 37.61265625 -260.4425 38.19015625 -260.71875 38.78515625 C-262.15668392 38.47465899 -263.5940818 38.16167865 -265.03125 37.84765625 C-265.83175781 37.67363281 -266.63226563 37.49960937 -267.45703125 37.3203125 C-269.71875 36.78515625 -269.71875 36.78515625 -272.71875 35.78515625 C-280.99966533 34.86505455 -288.55474861 37.96842822 -295.78125 41.91015625 C-298.20153425 43.00318785 -300.32811761 43.20168527 -302.96875 43.41015625 C-303.86078125 43.48492187 -304.7528125 43.5596875 -305.671875 43.63671875 C-306.34734375 43.68570313 -307.0228125 43.7346875 -307.71875 43.78515625 C-304.9134323 50.4429379 -302.41976514 55.57483728 -295.71875 58.78515625 C-282.46714733 63.50182839 -267.55960301 60.49346902 -254.71875 55.78515625 C-254.44804687 56.501875 -254.17734375 57.21859375 -253.8984375 57.95703125 C-247.54475485 73.18903867 -236.44855338 87.44161106 -225.09375 99.26953125 C-222.71875 101.78515625 -222.71875 101.78515625 -220.625 104.4140625 C-218.34655494 107.24811199 -215.84478526 109.4425826 -213.078125 111.78515625 C-211.43962093 113.17408685 -209.82646815 114.59326056 -208.234375 116.03515625 C-201.98917469 121.53940059 -195.45175435 126.03392641 -188.34375 130.34765625 C-187.48749023 130.87254639 -186.63123047 131.39743652 -185.74902344 131.93823242 C-184.92692383 132.42525635 -184.10482422 132.91228027 -183.2578125 133.4140625 C-182.52771973 133.8479126 -181.79762695 134.2817627 -181.04541016 134.72875977 C-177.22563513 136.46308994 -174.17602518 137.28698568 -170.13598633 135.89575195 C-169.28286865 135.42226318 -168.42975098 134.94877441 -167.55078125 134.4609375 C-166.58366211 133.93201904 -165.61654297 133.40310059 -164.62011719 132.8581543 C-163.60079102 132.27718994 -162.58146484 131.69622559 -161.53125 131.09765625 C-160.47711914 130.51346924 -159.42298828 129.92928223 -158.33691406 129.32739258 C-150.57412612 124.9761826 -143.00540368 120.34206138 -135.60864258 115.39379883 C-134.88700928 114.91837646 -134.16537598 114.4429541 -133.421875 113.953125 C-132.79958008 113.53313232 -132.17728516 113.11313965 -131.53613281 112.68041992 C-129.71875 111.78515625 -129.71875 111.78515625 -125.71875 111.78515625 C-125.38875 113.10515625 -125.05875 114.42515625 -124.71875 115.78515625 C-125.41226563 116.03652344 -126.10578125 116.28789062 -126.8203125 116.546875 C-130.10714812 117.95108914 -133.06468962 119.72115104 -136.09375 121.59765625 C-142.83460301 125.70475738 -149.66255047 129.64599168 -156.53125 133.53515625 C-157.48499512 134.07760986 -158.43874023 134.62006348 -159.42138672 135.17895508 C-165.43183015 138.57278754 -171.51345339 141.76230119 -177.71875 144.78515625 C-177.38875 146.43515625 -177.05875 148.08515625 -176.71875 149.78515625 C-169.95681937 151.52235644 -163.75079102 152.12183925 -156.78125 152.09765625 C-155.85634766 152.11376953 -154.93144531 152.12988281 -153.97851562 152.14648438 C-141.74981657 152.15505389 -131.2187838 147.97906415 -122.09375 139.78515625 C-117.1947807 134.62896183 -114.04419725 128.01281202 -110.71875 121.78515625 C-109.72875 122.11515625 -108.73875 122.44515625 -107.71875 122.78515625 C-109.34571196 133.06459771 -115.86368056 141.28687153 -123.71875 147.78515625 C-125.9921875 149.03125 -125.9921875 149.03125 -127.71875 149.78515625 C-127.71875 150.44515625 -127.71875 151.10515625 -127.71875 151.78515625 C-121.60305353 151.86025454 -115.48763531 151.91419872 -109.37158203 151.94995117 C-107.29829218 151.96488194 -105.22503302 151.98523394 -103.15185547 152.01147461 C-90.59550335 152.16622907 -78.96268252 151.71323157 -66.71875 148.78515625 C-65.6148291 148.54144287 -64.5109082 148.29772949 -63.37353516 148.04663086 C-53.42740564 145.81938815 -44.2511721 142.20993289 -35.34375 137.28515625 C-28.18443929 133.55651636 -20.91112755 132.05694156 -12.97705078 130.734375 C-6.17523609 129.49959482 -1.00718692 127.32403944 4.28125 122.78515625 C4.94125 121.79515625 5.60125 120.80515625 6.28125 119.78515625 C5.58 120.07390625 4.87875 120.36265625 4.15625 120.66015625 C-7.98540044 125.41123686 -18.66988512 124.72934563 -30.71875 119.78515625 C-39.47886102 115.78163581 -47.36395421 111.03191512 -54.71875 104.78515625 C-55.62625 104.10453125 -56.53375 103.42390625 -57.46875 102.72265625 C-59.3721128 101.08364939 -60.82780634 99.52839023 -62.40625 97.59765625 C-64.41265251 94.76868392 -64.41265251 94.76868392 -66.71875 93.78515625 C-66.09375 91.84765625 -66.09375 91.84765625 -64.71875 89.78515625 C-61.59375 89.03515625 -61.59375 89.03515625 -58.71875 88.78515625 C-58.55375 89.52765625 -58.38875 90.27015625 -58.21875 91.03515625 C-55.95461415 95.18607197 -53.18387388 96.46164059 -48.71875 97.78515625 C-37.35234507 99.79380565 -27.87673263 95.22912472 -17.71875 90.78515625 C-13.72995216 89.08980475 -9.73629523 87.41130551 -5.71875 85.78515625 C-4.97625 85.47578125 -4.23375 85.16640625 -3.46875 84.84765625 C5.33939512 81.66693718 15.02006959 82.02915533 24.28125 81.78515625 C24.69964812 76.99722942 24.69964812 76.99722942 22.91796875 72.7109375 C14.054281 65.37485926 5.54813584 63.09800803 -5.921875 63.37890625 C-10.85924527 63.90718455 -15.26340485 65.20609849 -19.9140625 66.91015625 C-22.69412163 67.77747275 -24.82935974 67.9544978 -27.71875 67.78515625 C-27.71875 66.46515625 -27.71875 65.14515625 -27.71875 63.78515625 C-26.1296785 63.32609115 -24.53938492 62.87107409 -22.9453125 62.4296875 C-21.40813765 61.98471583 -19.88204643 61.50023228 -18.3671875 60.984375 C-8.97725803 57.99151228 1.64918378 57.47941067 11.28125 59.78515625 C13.29693314 43.63245213 11.81814093 25.30707486 1.90625 11.77734375 C-7.97064232 -0.33134635 -22.32924108 -7.00924863 -37.71875 -9.21484375 C-82.29383126 -12.79432782 -118.33858878 9.57722831 -151.8515625 36.28125 Z " fill="#080A0B" transform="translate(317.71875,17.21484375)"/>
<path d="M0 0 C1.58035034 0.00845947 1.58035034 0.00845947 3.19262695 0.01708984 C21.34066083 0.30006189 37.52875728 6.24981002 50.3125 19.4375 C59.05891641 29.6445164 62.01555281 43.16131314 61.125 56.3125 C60.82948556 57.65472208 60.50946885 58.9930029 60.125 60.3125 C58.5471875 59.8175 58.5471875 59.8175 56.9375 59.3125 C48.33873513 57.18575922 40.02318884 57.27938229 32.125 61.3125 C30.805 61.3125 29.485 61.3125 28.125 61.3125 C28.125 61.9725 28.125 62.6325 28.125 63.3125 C7.94306091 70.3877775 -12.89004032 77.43156525 -33.73046875 68.0234375 C-40.25665081 64.4181316 -44.25174595 60.44546599 -46.9765625 53.5078125 C-49.72463407 43.73423624 -48.25228565 33.36231345 -43.875 24.3125 C-40.27228971 18.65109812 -35.71973952 13.92091076 -30.875 9.3125 C-31.865 8.6525 -32.855 7.9925 -33.875 7.3125 C-30.22706816 6.03996564 -26.6813457 4.98420806 -22.875 4.3125 C-22.875 3.6525 -22.875 2.9925 -22.875 2.3125 C-15.19371933 0.66516421 -7.85073203 -0.04421524 0 0 Z " fill="#FCFDF3" transform="translate(267.875,7.6875)"/>
<path d="M0 0 C-0.23783203 1.02867188 -0.23783203 1.02867188 -0.48046875 2.078125 C-2.07028576 11.01935149 -2.24408054 20.30035793 3 28 C6.61190456 32.50510118 10.17568713 36.78379142 15 40 C15 40.66 15 41.32 15 42 C15.556875 42.18175781 16.11375 42.36351562 16.6875 42.55078125 C17.8321875 42.92783203 17.8321875 42.92783203 19 43.3125 C19.7425 43.55613281 20.485 43.79976562 21.25 44.05078125 C22.76779748 44.5746801 24.28100451 45.11681292 25.76367188 45.7331543 C30.98894756 47.86619953 35.89636972 48.69010936 41.5 49.1875 C42.32242188 49.26935547 43.14484375 49.35121094 43.9921875 49.43554688 C45.99385775 49.63338638 47.99681953 49.81808724 50 50 C49.48695313 50.2371875 48.97390625 50.474375 48.4453125 50.71875 C45.1331306 52.45420633 42.0237787 54.48916723 38.875 56.5 C30.81213062 61.59771147 22.55043218 66.2916359 14.14892578 70.80712891 C12.63623385 71.64682588 11.14639633 72.5283701 9.67529297 73.43896484 C3.84307068 76.9763424 3.84307068 76.9763424 -0.0625 77.0859375 C-3.97266102 75.64042585 -7.43558237 73.77594167 -11 71.625 C-11.74040527 71.18309326 -12.48081055 70.74118652 -13.24365234 70.28588867 C-22.750119 64.48407314 -31.89461442 57.74295225 -39.47265625 49.53515625 C-41.071872 47.86139255 -41.071872 47.86139255 -43.40625 46.140625 C-46.16115578 43.86699794 -48.21946453 41.48277822 -50.4375 38.6875 C-52.84360061 35.67018958 -55.26442827 32.69954942 -57.828125 29.81640625 C-61.75445972 25.25886411 -65.00522417 20.26481783 -68.3125 15.25 C-68.94478516 14.30511719 -69.57707031 13.36023438 -70.22851562 12.38671875 C-74.86855595 5.39433215 -74.86855595 5.39433215 -76 2 C-72.05008501 2 -71.02018737 3.55508641 -68 6 C-58.88090366 10.68982097 -49.04969138 10.14225309 -39.13964844 9.19433594 C-37.02384674 9.00216591 -34.90919583 8.86147112 -32.7890625 8.7265625 C-23.12769125 7.9874168 -15.21563295 5.48215301 -6.4140625 1.4609375 C-3 0 -3 0 0 0 Z " fill="#D3D1C5" transform="translate(142,77)"/>
<path d="M0 0 C1.67542976 0.28604898 3.34385343 0.61781233 5 1 C5.62089755 5.96718042 5.60866657 9.85233729 2.6875 14.0625 C-0.81484357 18.25355382 -5.12848331 21.26297626 -9.609375 24.3359375 C-12.04362861 25.92604102 -12.04362861 25.92604102 -14 28 C-13.505 28.61875 -13.01 29.2375 -12.5 29.875 C-10.36368862 34.32564871 -10.21584069 38.14708958 -11 43 C-13.915592 50.17684185 -19.27892713 54.96557397 -26.25 58.0625 C-31.83719787 60.16511771 -37.61648599 61.35123312 -43.44946289 62.55517578 C-47.52540985 63.40384968 -51.31146828 64.37909549 -55.1875 65.9375 C-59.03015632 67.00840422 -59.64540042 67.11917018 -63.0625 65.6875 C-64.031875 65.130625 -65.00125 64.57375 -66 64 C-56.80087752 57.86725168 -47.85209484 55.39678273 -37.13012695 53.54833984 C-30.74821081 52.36520667 -25.84862035 50.48946328 -21 46 C-22.94672898 46.64890966 -24.88404462 47.32705962 -26.80859375 48.0390625 C-39.697689 51.91998959 -52.35571872 47.16149107 -63.75 41.1875 C-69.63040195 37.99187256 -74.90639483 34.35524644 -80 30 C-80.57234375 29.54753906 -81.1446875 29.09507813 -81.734375 28.62890625 C-84.98194466 26.0485353 -87.45049362 23.25281849 -90 20 C-90.99 19.34 -91.98 18.68 -93 18 C-91.63016497 14.83884224 -91.0109362 14.0072908 -88 12 C-85.4375 12.0625 -85.4375 12.0625 -83 13 C-82.71125 13.78375 -82.4225 14.5675 -82.125 15.375 C-81.18042819 18.25472516 -81.18042819 18.25472516 -78.1875 19.8125 C-65.58936551 24.22701024 -54.43818318 19.00403745 -43 14 C-39.01115802 12.30462973 -35.0154785 10.63128814 -31 9 C-30.2575 8.67902344 -29.515 8.35804687 -28.75 8.02734375 C-19.96078935 4.7466488 -10.23211103 5.73795318 -1 6 C-1.020625 5.195625 -1.04125 4.39125 -1.0625 3.5625 C-1 1 -1 1 0 0 Z " fill="#0B0B0B" transform="translate(343,93)"/>
<path d="M0 0 C3.40770099 2.67990857 3.40770099 2.67990857 4.76953125 4.5390625 C4.76953125 5.8590625 4.76953125 7.1790625 4.76953125 8.5390625 C3.37734375 8.2915625 3.37734375 8.2915625 1.95703125 8.0390625 C-10.88575297 6.2524655 -21.15428171 8.3806999 -32.7265625 13.94140625 C-41.55131413 17.96517817 -50.39691663 21.40165479 -60.23046875 20.5390625 C-62.32277644 16.10829327 -62.32277644 16.10829327 -61.85546875 13.2265625 C-61.64921875 12.6696875 -61.44296875 12.1128125 -61.23046875 11.5390625 C-60.57046875 11.5390625 -59.91046875 11.5390625 -59.23046875 11.5390625 C-58.98425781 10.96414062 -58.73804688 10.38921875 -58.484375 9.796875 C-55.83213128 5.02118382 -51.13710459 0.66570542 -46.0234375 -1.31640625 C-44.55507729 -1.62595246 -43.07534375 -1.88507608 -41.58984375 -2.09765625 C-38.97279077 -2.50061308 -36.62312558 -3.27030607 -34.10546875 -4.0859375 C-22.490944 -7.25797157 -10.22197944 -6.69530702 0 0 Z " fill="#F9FAF1" transform="translate(336.23046875,86.4609375)"/>
<path d="M0 0 C0.33 0.66 0.66 1.32 1 2 C1.99 2.33 2.98 2.66 4 3 C5.0209375 4.3303125 5.0209375 4.3303125 6.0625 5.6875 C11.48084568 12.45636428 19.85451211 15.75665251 28 18 C28.99257812 18.2784375 29.98515625 18.556875 31.0078125 18.84375 C33.66792965 19.57851382 36.33142195 20.29669251 39 21 C39 21.33 39 21.66 39 22 C26.95502962 24.5772256 14.93805108 24.2270799 2.6875 24.125 C0.5787803 24.11494844 -1.52994405 24.10582645 -3.63867188 24.09765625 C-8.7592311 24.07581908 -13.87956318 24.04140944 -19 24 C-19 23.34 -19 22.68 -19 22 C-17.59595339 21.07538394 -16.19030062 20.15312911 -14.77734375 19.2421875 C-7.63074371 14.24742088 -3.80622438 7.71004426 0 0 Z " fill="#D2D0C5" transform="translate(209,145)"/>
<path d="M0 0 C0 0.66 0 1.32 0 2 C-28.9392029 15.22510428 -56.57120212 17.73227775 -88 17 C-87.42655063 14.13275314 -87.1385485 13.1385485 -85 11 C-82.64355469 10.72875977 -82.64355469 10.72875977 -79.671875 10.69140625 C-78.57262695 10.66844482 -77.47337891 10.6454834 -76.34082031 10.62182617 C-74.56336426 10.59245972 -74.56336426 10.59245972 -72.75 10.5625 C-52.56571669 10.01165402 -32.82412191 8.02463028 -14.0625 0.125 C-8.48592054 -2.14005511 -5.5472375 -2.28415662 0 0 Z " fill="#050709" transform="translate(284,159)"/>
<path d="M0 0 C3.45658479 2.04573386 4.7785359 3.66780385 7 7 C7.72753399 11.91508428 7.50435931 15.93308607 5.375 20.4375 C1.95222304 24.1304962 -1.02134519 25.71144617 -6 26.4375 C-10.63151798 25.76207029 -13.50245801 23.44590261 -16.8125 20.25 C-18.55937071 16.94013972 -19.1142614 13.69921291 -19 10 C-15.71315048 0.50465693 -9.35348715 -1.42060481 0 0 Z " fill="#090909" transform="translate(236,88)"/>
<path d="M0 0 C0.99 0.33 1.98 0.66 3 1 C1.75507761 4.73476717 0.41571777 5.3447038 -2.8125 7.5 C-6.56852605 10.02268572 -6.56852605 10.02268572 -10.19921875 12.71875 C-12 14 -12 14 -14 14 C-14.33 14.99 -14.66 15.98 -15 17 C-29.053407 30 -29.053407 30 -34 30 C-34 30.66 -34 31.32 -34 32 C-36.13264469 33.64850983 -38.25116961 35.14871095 -40.5 36.625 C-41.5058313 37.28943115 -41.5058313 37.28943115 -42.53198242 37.96728516 C-56.4770958 46.98364775 -71.74460723 55.15882844 -88.625 55.125 C-90.56246094 55.12886719 -90.56246094 55.12886719 -92.5390625 55.1328125 C-95.26226685 55.0283103 -97.42916106 54.82214646 -100 54 C-100 53.34 -100 52.68 -100 52 C-99.23558594 51.97421875 -98.47117187 51.9484375 -97.68359375 51.921875 C-70.2847641 50.47115478 -48.40119824 36.4416458 -27.73583984 19.57128906 C-22.91794941 15.66049023 -17.94875782 12.00905432 -12.875 8.4375 C-12.1641626 7.93677979 -11.4533252 7.43605957 -10.72094727 6.92016602 C-8.82447927 5.59710683 -6.91664267 4.29360033 -5 3 C-4.07445312 2.37222656 -3.14890625 1.74445312 -2.1953125 1.09765625 C-1.47085938 0.73542969 -0.74640625 0.37320312 0 0 Z " fill="#F2F2F0" transform="translate(197,31)"/>
<path d="M0 0 C1.14855469 0.11214844 1.14855469 0.11214844 2.3203125 0.2265625 C2.3203125 8.15306424 -3.10530088 15.97664952 -8.4296875 21.6640625 C-18.51393987 30.90796051 -29.5268976 33.58429058 -42.8046875 33.4140625 C-43.76761719 33.41341797 -44.73054687 33.41277344 -45.72265625 33.41210938 C-50.48084853 33.38265702 -55.00260898 33.21079619 -59.6796875 32.2265625 C-58.6896875 30.7415625 -58.6896875 30.7415625 -57.6796875 29.2265625 C-55.01953125 28.92578125 -55.01953125 28.92578125 -51.6171875 28.9140625 C-39.99839808 28.31638815 -28.5420118 24.42285697 -19.24609375 17.328125 C-17.6796875 16.2265625 -17.6796875 16.2265625 -15.6796875 16.2265625 C-15.6796875 15.5665625 -15.6796875 14.9065625 -15.6796875 14.2265625 C-14.359375 13 -14.359375 13 -12.5546875 11.6015625 C-9.02146605 8.72369664 -6.66256839 5.6018832 -4.234375 1.765625 C-2.6796875 0.2265625 -2.6796875 0.2265625 0 0 Z " fill="#D2D0C5" transform="translate(203.6796875,135.7734375)"/>
<path d="M0 0 C3.50245521 2.38767827 4.74021952 3.48193997 6.04296875 7.6796875 C5.91796875 11.0546875 5.91796875 11.0546875 4.98046875 12.9921875 C-0.307885 15.71649095 -5.37535048 14.104895 -10.75878906 12.40625 C-15.83989754 10.72817629 -20.56158447 9.00205338 -25.08203125 6.0546875 C-21.85623575 3.37963757 -18.59462262 1.84522487 -14.70703125 0.3046875 C-13.60617187 -0.14390625 -12.5053125 -0.5925 -11.37109375 -1.0546875 C-7.05457996 -2.22352971 -4.05172268 -1.83961893 0 0 Z " fill="#DA6C6F" transform="translate(310.08203125,113.9453125)"/>
<path d="M0 0 C6.11672126 -0.79783321 9.09343884 1.05148344 14.17578125 4.3359375 C23.60103953 9.88940918 34.06000554 13.00763107 45 12 C48.24006063 10.64997474 49.51973759 9.80043735 51.3125 6.8125 C51.6528125 5.9153125 51.6528125 5.9153125 52 5 C52.66 5 53.32 5 54 5 C54.35892399 8.23031588 54.33374337 9.5673697 52.3125 12.1875 C45.72078821 17.3539768 37.93647359 16.50168382 30 16 C23.53052966 15.04610729 17.93460203 12.10127699 12.1875 9.125 C11.55263672 8.79757813 10.91777344 8.47015625 10.26367188 8.1328125 C6.15004593 5.90405432 3.15905615 3.45390139 0 0 Z " fill="#F0F3F3" transform="translate(269,120)"/>
<path d="M0 0 C0 0.66 0 1.32 0 2 C-1.71833476 3.40034072 -3.50129099 4.72205227 -5.3125 6 C-6.29863281 6.70125 -7.28476562 7.4025 -8.30078125 8.125 C-13.89643872 12.01199795 -13.89643872 12.01199795 -15.921875 11.77734375 C-18.22004096 10.91769145 -20.16858509 9.86145708 -22.25 8.5625 C-22.95640625 8.13066406 -23.6628125 7.69882813 -24.390625 7.25390625 C-24.92171875 6.84011719 -25.4528125 6.42632812 -26 6 C-26 5.34 -26 4.68 -26 4 C-17.14992367 0.36919945 -9.52801503 -0.50740908 0 0 Z " fill="#8B8476" transform="translate(338,104)"/>
<path d="M0 0 C0.33 0 0.66 0 1 0 C1 2.31 1 4.62 1 7 C-0.28132813 7.02578125 -1.56265625 7.0515625 -2.8828125 7.078125 C-13.55534263 7.39342156 -22.86890353 8.39373222 -33 12 C-33 10.68 -33 9.36 -33 8 C-28.25 6.875 -28.25 6.875 -26 8 C-26 7.34 -26 6.68 -26 6 C-25.67 5.67 -25.34 5.34 -25 5 C-25 4.34 -25 3.68 -25 3 C-16.67128251 0.03867823 -8.32871749 0.03867823 0 3 C0 2.01 0 1.02 0 0 Z " fill="#DFE0D5" transform="translate(341,92)"/>
<path d="M0 0 C3.58927056 3.43321532 4.20829319 5.52444298 4.375 10.5 C4.29729767 16.98037429 2.88214818 21.78046106 -1 27 C-3.49052415 29.33547206 -6.10254745 31.2057616 -9 33 C-12.16666667 34.83333333 -12.16666667 34.83333333 -14 38 C-14.60444403 35.09866866 -14.86966329 33.77238115 -14 31 C-11.66401851 28.80195266 -9.14765892 27.00458418 -6.55859375 25.11328125 C-2.86678637 22.06401745 -0.54490876 18.52902199 1 14 C1.15716465 11.31990927 1.15716465 11.31990927 1 9 C0.34 8.67 -0.32 8.34 -1 8 C-1 7.34 -1 6.68 -1 6 C-2.98 6.99 -2.98 6.99 -5 8 C-5.66 7.34 -6.32 6.68 -7 6 C-6.21625 5.7525 -5.4325 5.505 -4.625 5.25 C-1.67682892 3.84610901 -1.0975223 2.99324263 0 0 Z " fill="#CDCDC2" transform="translate(83,34)"/>
<path d="M0 0 C0.66 0.33 1.32 0.66 2 1 C0.92130607 1.96355244 -0.16318743 2.92061417 -1.25 3.875 C-1.85328125 4.40867188 -2.4565625 4.94234375 -3.078125 5.4921875 C-6.39783744 8.09667734 -9.5763013 9.26565694 -13.6953125 10.0703125 C-14.57574219 10.24433594 -15.45617187 10.41835937 -16.36328125 10.59765625 C-17.27464844 10.77167969 -18.18601562 10.94570312 -19.125 11.125 C-20.04410156 11.30675781 -20.96320313 11.48851562 -21.91015625 11.67578125 C-28.69055451 13 -28.69055451 13 -31 13 C-31 11.68 -31 10.36 -31 9 C-30.34 9 -29.68 9 -29 9 C-28.67 7.68 -28.34 6.36 -28 5 C-23.77621492 4.17044101 -19.97947321 3.99360133 -15.6875 4.1875 C-10.20338656 4.26279675 -6.49194446 3.41392858 -1.70703125 0.77734375 C-1.14371094 0.52082031 -0.58039063 0.26429688 0 0 Z " fill="#E1E0D4" transform="translate(322,137)"/>
<path d="M0 0 C0.49628906 0.40992187 0.99257812 0.81984375 1.50390625 1.2421875 C9.83578214 7.85077217 17.5039009 8.86013164 28 8 C30.68350077 7.36404708 33.22873377 6.57254031 35.83203125 5.66796875 C38.60312923 4.81417099 41.12271245 4.77284572 44 5 C44.495 6.485 44.495 6.485 45 8 C33.6970911 12.88220022 19.82004645 13.91510015 8.12890625 9.91796875 C4.30122179 8.2674993 1.78603101 6.34748173 -0.3125 2.75 C-0.6528125 1.88375 -0.6528125 1.88375 -1 1 C-0.67 0.67 -0.34 0.34 0 0 Z " fill="#CBCCC1" transform="translate(14,66)"/>
<path d="M0 0 C1.31690141 6.34507042 1.31690141 6.34507042 0.0625 8.9375 C-4.37348917 11.22270654 -9.37713252 10.30605402 -14 9 C-14.99 8.67 -15.98 8.34 -17 8 C-17 7.01 -17 6.02 -17 5 C-11.98048469 0.14461053 -6.7163411 -0.69961886 0 0 Z " fill="#F39697" transform="translate(315,118)"/>
<path d="M0 0 C6.17210783 -0.80505754 9.44866593 1.10502827 14.5703125 4.4921875 C16.95934911 6.08383353 16.95934911 6.08383353 19.6796875 7.0078125 C22 8 22 8 24 11 C24.99 11.33 25.98 11.66 27 12 C27 12.99 27 13.98 27 15 C21.09376108 13.37069271 15.99049676 11.07377032 10.6875 8.0625 C10.08921387 7.72669922 9.49092773 7.39089844 8.87451172 7.04492188 C5.4411879 5.04994754 2.66631607 2.94282292 0 0 Z " fill="#C2D1DF" transform="translate(269,120)"/>
<path d="M0 0 C0 0.66 0 1.32 0 2 C2.31 2.33 4.62 2.66 7 3 C7 3.66 7 4.32 7 5 C3.45835085 5.0292067 -0.08326697 5.04686814 -3.625 5.0625 C-5.12353516 5.07506836 -5.12353516 5.07506836 -6.65234375 5.08789062 C-11.55020275 5.1041087 -16.18656199 5.04318537 -21 4 C-20.34 3.01 -19.68 2.02 -19 1 C-15.91796875 0.48828125 -15.91796875 0.48828125 -12.1875 0.3125 C-10.96417969 0.24675781 -9.74085938 0.18101562 -8.48046875 0.11328125 C-5.64939873 0.02113643 -2.83201398 -0.02697156 0 0 Z " fill="#C8C8BC" transform="translate(165,164)"/>
<path d="M0 0 C1.67542976 0.28604898 3.34385343 0.61781233 5 1 C4.33742188 1.38929687 3.67484375 1.77859375 2.9921875 2.1796875 C0.74198726 3.82868285 0.74198726 3.82868285 0.7578125 6.4453125 C0.93957031 7.77175781 0.93957031 7.77175781 1.125 9.125 C1.23070312 10.01445313 1.33640625 10.90390625 1.4453125 11.8203125 C1.62835938 12.53960937 1.81140625 13.25890625 2 14 C2.66 14.33 3.32 14.66 4 15 C4.6513337 16.26853638 5.24875279 17.56518733 5.8125 18.875 C7.58768806 22.6263408 9.23493988 24.11746994 13 26 C13 26.66 13 27.32 13 28 C13.99 28.33 14.98 28.66 16 29 C15.34 29.33 14.68 29.66 14 30 C5.30009608 24.30080736 1.41149004 18.26164388 -1.6171875 8.39453125 C-2.0570422 5.64319525 -1.74731727 3.67096728 -1 1 C-0.67 0.67 -0.34 0.34 0 0 Z " fill="#000A14" transform="translate(4,51)"/>
<path d="M0 0 C-1.30230943 3.9069283 -2.73116269 4.23708974 -6.3125 6.125 C-7.27800781 6.64320312 -8.24351562 7.16140625 -9.23828125 7.6953125 C-11.53779136 8.78164401 -13.51903214 9.51677111 -16 10 C-16.33 9.01 -16.66 8.02 -17 7 C-14.9219935 5.82286337 -12.83848217 4.65828026 -10.75 3.5 C-10.16347656 3.16613281 -9.57695312 2.83226562 -8.97265625 2.48828125 C-5.61417893 0.63923194 -3.93354216 0 0 0 Z " fill="#E8E9E6" transform="translate(215,23)"/>
<path d="M0 0 C-0.33 0.99 -0.66 1.98 -1 3 C-4.06957098 4.02319033 -6.22440323 4.13371939 -9.4375 4.125 C-10.85869141 4.12886719 -10.85869141 4.12886719 -12.30859375 4.1328125 C-14.70140459 4.01473475 -16.71336153 3.68112635 -19 3 C-19 2.34 -19 1.68 -19 1 C-16.95857606 0.83038614 -14.91684689 0.66444404 -12.875 0.5 C-11.16957031 0.36078125 -11.16957031 0.36078125 -9.4296875 0.21875 C-6.27402851 0.0174779 -3.16078835 -0.03842904 0 0 Z " fill="#FDFDFA" transform="translate(116,82)"/>
<path d="M0 0 C0.66 0 1.32 0 2 0 C2.35892399 3.23031588 2.33374337 4.5673697 0.3125 7.1875 C-3.05457127 9.82655586 -5.71132696 11 -10 11 C-10 10.34 -10 9.68 -10 9 C-11.65 9 -13.3 9 -15 9 C-15 8.67 -15 8.34 -15 8 C-14.32453125 7.90203125 -13.6490625 7.8040625 -12.953125 7.703125 C-6.02142581 6.63891862 -6.02142581 6.63891862 -1 2 C-0.67 1.34 -0.34 0.68 0 0 Z " fill="#DEDFE0" transform="translate(321,125)"/>
<path d="M0 0 C6.75 1.625 6.75 1.625 9 5 C9.99 5.33 10.98 5.66 12 6 C12 6.99 12 7.98 12 9 C2.40546697 6.10933941 2.40546697 6.10933941 -1 3 C-0.67 2.01 -0.34 1.02 0 0 Z " fill="#C4CED6" transform="translate(284,126)"/>
<path d="M0 0 C4.08792398 1.88673414 6.07466572 3.94666466 8 8 C8 8.99 8 9.98 8 11 C7.34 11 6.68 11 6 11 C5.01 8.69 4.02 6.38 3 4 C1.02 4.99 1.02 4.99 -1 6 C-1 6.66 -1 7.32 -1 8 C-1.66 8 -2.32 8 -3 8 C-3.33 8.99 -3.66 9.98 -4 11 C-5 9 -5 9 -4.51171875 7.08984375 C-4.10373047 6.02443359 -4.10373047 6.02443359 -3.6875 4.9375 C-3.42324219 4.22464844 -3.15898438 3.51179688 -2.88671875 2.77734375 C-2 1 -2 1 0 0 Z " fill="#000916" transform="translate(82,22)"/>
<path d="M0 0 C2.5 0.125 2.5 0.125 3.5 1.125 C3.625 3.625 3.625 3.625 3.5 6.125 C2.5 7.125 2.5 7.125 -0.0625 7.1875 C-1.2690625 7.1565625 -1.2690625 7.1565625 -2.5 7.125 C-2.88133299 5.1335944 -3.21325582 3.13220923 -3.5 1.125 C-2.5 0.125 -2.5 0.125 0 0 Z " fill="#E7E7E7" transform="translate(233.5,93.875)"/>
<path d="M0 0 C0 0.99 0 1.98 0 3 C-0.68707031 3.25394531 -1.37414062 3.50789063 -2.08203125 3.76953125 C-2.98308594 4.11371094 -3.88414063 4.45789062 -4.8125 4.8125 C-5.70582031 5.14894531 -6.59914063 5.48539063 -7.51953125 5.83203125 C-9.96952241 6.98564913 -11.2416182 7.98454484 -13 10 C-14.62652316 11.70586575 -16.29006566 13.3777546 -18 15 C-18.66 15 -19.32 15 -20 15 C-17.9133001 9.87810024 -14.96380376 6.92490494 -10.0390625 4.60546875 C-7.88492259 3.7177175 -5.72092721 2.85343048 -3.546875 2.015625 C-1.10420054 1.23583111 -1.10420054 1.23583111 0 0 Z " fill="#000916" transform="translate(75,33)"/>
<path d="M0 0 C0.99 0.33 1.98 0.66 3 1 C3 2.65 3 4.3 3 6 C-1.455 7.485 -1.455 7.485 -6 9 C-6 7 -6 7 -4 5 C-3.505 3.9790625 -3.505 3.9790625 -3 2.9375 C-2 1 -2 1 0 0 Z " fill="#E1E2D7" transform="translate(302,100)"/>
<path d="M0 0 C4.62 0 9.24 0 14 0 C14 0.66 14 1.32 14 2 C11.69 3.32 9.38 4.64 7 6 C6.67 4.68 6.34 3.36 6 2 C3.03 1.505 3.03 1.505 0 1 C0 0.67 0 0.34 0 0 Z " fill="#878174" transform="translate(324,104)"/>
<path d="M0 0 C0 0.99 0 1.98 0 3 C-1.87643761 4.87643761 -4.49805701 4.17984987 -6.9921875 4.23046875 C-9 4 -9 4 -12 2 C-7.8803623 0.70756464 -4.33168317 -0.26252625 0 0 Z " fill="#D68D90" transform="translate(314,124)"/>
<path d="M0 0 C0.66 0.33 1.32 0.66 2 1 C0.54821438 4.38749978 -1.36940603 6.45161209 -4 9 C-4.66 9.99 -5.32 10.98 -6 12 C-6.375 8.8125 -6.375 8.8125 -6 5 C-4.18811972 2.8596502 -2.34198833 1.61011698 0 0 Z " fill="#D4D2C6" transform="translate(75,60)"/>
<path d="M0 0 C0.66 0.33 1.32 0.66 2 1 C-0.86594143 5.18868363 -2.99240743 6.95675155 -8 8 C-10.1875 7.5390625 -10.1875 7.5390625 -12 7 C-11.21753906 6.57847656 -10.43507812 6.15695313 -9.62890625 5.72265625 C-8.61699219 5.17480469 -7.60507813 4.62695312 -6.5625 4.0625 C-5.55316406 3.51722656 -4.54382813 2.97195312 -3.50390625 2.41015625 C-1.13329507 1.22300532 -1.13329507 1.22300532 0 0 Z " fill="#000817" transform="translate(144,61)"/>
<path d="M0 0 C0.99 0 1.98 0 3 0 C3 0.66 3 1.32 3 2 C4.175625 2.185625 4.175625 2.185625 5.375 2.375 C8 3 8 3 10 5 C10.66 5.33 11.32 5.66 12 6 C12 6.66 12 7.32 12 8 C14.475 8.99 14.475 8.99 17 10 C16.01 10.495 16.01 10.495 15 11 C12.55731047 9.6350547 10.26370317 8.22979822 7.9375 6.6875 C7.28716797 6.27048828 6.63683594 5.85347656 5.96679688 5.42382812 C1.13599783 2.27199566 1.13599783 2.27199566 0 0 Z " fill="#000914" transform="translate(114,144)"/>
<path d="M0 0 C2.64 0 5.28 0 8 0 C7.67 0.66 7.34 1.32 7 2 C4.4375 2.625 4.4375 2.625 2 3 C2 3.66 2 4.32 2 5 C2.66 5.33 3.32 5.66 4 6 C2.125 6.625 2.125 6.625 0 7 C-0.66 6.34 -1.32 5.68 -2 5 C-1.34 3.35 -0.68 1.7 0 0 Z " fill="#948B7B" transform="translate(323,105)"/>
<path d="M0 0 C0.33 0.99 0.66 1.98 1 3 C-3.625 5.125 -3.625 5.125 -7 4 C-7.33 3.01 -7.66 2.02 -8 1 C-5.29120665 -0.35439668 -2.99066732 -0.06501451 0 0 Z " fill="#C6C6BB" transform="translate(58,71)"/>
<path d="M0 0 C0.33 1.98 0.66 3.96 1 6 C-1.64 6 -4.28 6 -7 6 C-7 5.34 -7 4.68 -7 4 C-1.47058824 0 -1.47058824 0 0 0 Z " fill="#B8B6AF" transform="translate(197,163)"/>
<path d="M0 0 C-2.12780579 2.34058637 -4.11562221 3.70700306 -7 5 C-7.66 3.35 -8.32 1.7 -9 0 C-3.375 -1.125 -3.375 -1.125 0 0 Z " fill="#DEDED4" transform="translate(72,73)"/>
<path d="M0 0 C0.66 0.33 1.32 0.66 2 1 C-1.465 3.97 -1.465 3.97 -5 7 C-6.32 6.34 -7.64 5.68 -9 5 C-6.06626269 3.04417512 -3.21783702 1.43775696 0 0 Z " fill="#CBCBC7" transform="translate(322,137)"/>
<path d="M0 0 C5.28 0 10.56 0 16 0 C16 0.99 16 1.98 16 3 C10.72 2.34 5.44 1.68 0 1 C0 0.67 0 0.34 0 0 Z " fill="#F3F3E9" transform="translate(298,142)"/>
<path d="M0 0 C4.76560621 1.40164889 7.95882443 4.15411474 11 8 C11 8.66 11 9.32 11 10 C10.34 10 9.68 10 9 10 C8.401875 9.236875 7.80375 8.47375 7.1875 7.6875 C4.97061852 4.96390275 2.99086558 3.74467159 0 2 C0 1.34 0 0.68 0 0 Z " fill="#000A17" transform="translate(336,80)"/>
<path d="M0 0 C0.66 0.33 1.32 0.66 2 1 C1.04956626 2.33897583 0.08940853 3.67105427 -0.875 5 C-1.40867187 5.7425 -1.94234375 6.485 -2.4921875 7.25 C-3.23855469 8.11625 -3.23855469 8.11625 -4 9 C-4.66 9 -5.32 9 -6 9 C-4.99127482 5.97382445 -3.74839516 3.65756064 -2 1 C-1.34 0.67 -0.68 0.34 0 0 Z " fill="#000C12" transform="translate(89,58)"/>
<path d="M0 0 C0.66 0.33 1.32 0.66 2 1 C1.75 2.875 1.75 2.875 1 5 C-0.9375 6.1875 -0.9375 6.1875 -3 7 C-3.99 7.495 -3.99 7.495 -5 8 C-5.66 7.34 -6.32 6.68 -7 6 C-6.21625 5.7525 -5.4325 5.505 -4.625 5.25 C-1.67682892 3.84610901 -1.0975223 2.99324263 0 0 Z " fill="#DCD7CF" transform="translate(83,34)"/>
<path d="M0 0 C0.66 0.66 1.32 1.32 2 2 C1.9765625 4.1640625 1.9765625 4.1640625 1.625 6.625 C1.51414062 7.44226562 1.40328125 8.25953125 1.2890625 9.1015625 C1.19367188 9.72804688 1.09828125 10.35453125 1 11 C0.67 11 0.34 11 0 11 C-0.12375 10.195625 -0.2475 9.39125 -0.375 8.5625 C-0.684375 7.2940625 -0.684375 7.2940625 -1 6 C-1.66 5.67 -2.32 5.34 -3 5 C-3 4.34 -3 3.68 -3 3 C-2.01 3 -1.02 3 0 3 C0 2.01 0 1.02 0 0 Z " fill="#C8C9BC" transform="translate(85,37)"/>
<path d="M0 0 C-1.3125 1.5 -1.3125 1.5 -3 3 C-3.99 3 -4.98 3 -6 3 C-6 2.34 -6 1.68 -6 1 C-7.65 1 -9.3 1 -11 1 C-11 0.67 -11 0.34 -11 0 C-3.375 -1.125 -3.375 -1.125 0 0 Z " fill="#E8E8E8" transform="translate(317,133)"/>
<path d="M0 0 C2.31 0.66 4.62 1.32 7 2 C6.67 2.66 6.34 3.32 6 4 C3.5625 4.75 3.5625 4.75 1 5 C0.34 4.34 -0.32 3.68 -1 3 C-0.67 2.01 -0.34 1.02 0 0 Z " fill="#B7C9D5" transform="translate(284,126)"/>
<path d="M0 0 C0.33 0 0.66 0 1 0 C1.28571429 7.42857143 1.28571429 7.42857143 -1 11 C-1.66 10.67 -2.32 10.34 -3 10 C-3 7 -3 7 -2 4 C-1.34 4 -0.68 4 0 4 C0 2.68 0 1.36 0 0 Z " fill="#D9D8CC" transform="translate(86,44)"/>
<path d="M0 0 C-1.70828921 2.10633718 -2.52148416 2.93801608 -5.26171875 3.29296875 C-6.06222656 3.25816406 -6.86273438 3.22335937 -7.6875 3.1875 C-8.89986328 3.14689453 -8.89986328 3.14689453 -10.13671875 3.10546875 C-11.05904297 3.05326172 -11.05904297 3.05326172 -12 3 C-7.86112344 0.24074896 -4.92824278 -0.13689563 0 0 Z " fill="#D1CFD1" transform="translate(246,11)"/>
<path d="M0 0 C0.99 0.33 1.98 0.66 3 1 C2.67 1.99 2.34 2.98 2 4 C0.02 4.33 -1.96 4.66 -4 5 C-2.68 3.35 -1.36 1.7 0 0 Z " fill="#C4C3B9" transform="translate(201,158)"/>
<path d="M0 0 C-1.44390925 3.80666984 -3.34952803 5.26602582 -7 7 C-7.66 6.67 -8.32 6.34 -9 6 C-7.8803014 4.99406757 -6.7540588 3.9954151 -5.625 3 C-4.68527344 2.1646875 -4.68527344 2.1646875 -3.7265625 1.3125 C-2 0 -2 0 0 0 Z " fill="#000916" transform="translate(169,44)"/>
<path d="M0 0 C0.86625 0.3403125 0.86625 0.3403125 1.75 0.6875 C0.76 2.1725 0.76 2.1725 -0.25 3.6875 C-3.22 3.1925 -3.22 3.1925 -6.25 2.6875 C-2.80384615 -0.38942308 -2.80384615 -0.38942308 0 0 Z " fill="#D2D3CB" transform="translate(72.25,42.3125)"/>
<path d="M0 0 C1.32 0 2.64 0 4 0 C3.67 0.99 3.34 1.98 3 3 C0.4375 4.1875 0.4375 4.1875 -2 5 C-1.34 3.35 -0.68 1.7 0 0 Z " fill="#F6F7F4" transform="translate(211,23)"/>
<path d="M0 0 C4 1 4 1 4 1 Z " fill="#000000" transform="translate(39,45)"/>
<path d="" fill="#00002A" transform="translate(0,0)"/>
</svg>
